<?xml version="1.0" standalone="no"?>
<!DOCTYPE svg PUBLIC "-//W3C//DTD SVG 20010904//EN"
 "http://www.w3.org/TR/2001/REC-SVG-20010904/DTD/svg10.dtd">
<svg version="1.0" xmlns="http://www.w3.org/2000/svg"
 width="700.000000pt" height="700.000000pt" viewBox="0 0 700.000000 700.000000"
 preserveAspectRatio="xMidYMid meet">
<metadata>
Created by potrace 1.11, written by Peter Selinger 2001-2013
</metadata>
<g transform="translate(0.000000,700.000000) scale(0.100000,-0.100000)"
fill="#000000" stroke="none">
<path d="M3270 6724 c-1455 -109 -2658 -1165 -2944 -2584 -50 -246 -60 -356
-60 -645 0 -288 10 -397 60 -645 253 -1265 1259 -2271 2524 -2524 247 -50 357
-60 645 -60 288 0 395 10 645 60 1258 251 2262 1249 2520 2505 53 257 64 370
64 664 0 288 -10 397 -60 645 -217 1088 -997 1999 -2044 2388 -227 84 -460
142 -720 177 -112 15 -516 27 -630 19z"/>
</g>
</svg>
